<svg width="25" height="25" viewBox="0 0 25 25" fill="none" xmlns="http://www.w3.org/2000/svg">
<path d="M12.5 0C10.8585 0 9.23303 0.323322 7.71646 0.951506C6.19989 1.57969 4.8219 2.50043 3.66117 3.66117C1.31696 6.00537 0 9.18479 0 12.5C0 15.8152 1.31696 18.9946 3.66117 21.3388C4.8219 22.4996 6.19989 23.4203 7.71646 24.0485C9.23303 24.6767 10.8585 25 12.5 25C15.8152 25 18.9946 23.683 21.3388 21.3388C23.683 18.9946 25 15.8152 25 12.5C25 10.8585 24.6767 9.23303 24.0485 7.71646C23.4203 6.19989 22.4996 4.8219 21.3388 3.66117C20.1781 2.50043 18.8001 1.57969 17.2835 0.951506C15.767 0.323322 14.1415 0 12.5 0ZM12.5 7.9875C14.4625 9.25 16.775 10 19.275 10C20.25 10 21.1875 9.8875 22.0875 9.675C22.35 10.5625 22.5 11.5125 22.5 12.5C22.5 18.0125 18.0125 22.5 12.5 22.5C8.75 22.5 5.4875 20.425 3.75 17.3625L5.9375 15V13.75C5.9375 13.3356 6.10212 12.9382 6.39515 12.6451C6.68817 12.3521 7.0856 12.1875 7.5 12.1875C7.9144 12.1875 8.31183 12.3521 8.60485 12.6451C8.89788 12.9382 9.0625 13.3356 9.0625 13.75V15H12.5M17.5 12.1875C17.0856 12.1875 16.6882 12.3521 16.3951 12.6451C16.1021 12.9382 15.9375 13.3356 15.9375 13.75C15.9375 14.1644 16.1021 14.5618 16.3951 14.8549C16.6882 15.1479 17.0856 15.3125 17.5 15.3125C17.9144 15.3125 18.3118 15.1479 18.6049 14.8549C18.8979 14.5618 19.0625 14.1644 19.0625 13.75C19.0625 13.3356 18.8979 12.9382 18.6049 12.6451C18.3118 12.3521 17.9144 12.1875 17.5 12.1875Z" fill="#FFBB0F"/>
</svg>
