<svg width="32" height="45" viewBox="0 0 32 45" fill="none" xmlns="http://www.w3.org/2000/svg">
<path d="M16 21.375C14.4845 21.375 13.031 20.7824 11.9594 19.7275C10.8878 18.6726 10.2857 17.2418 10.2857 15.75C10.2857 14.2582 10.8878 12.8274 11.9594 11.7725C13.031 10.7176 14.4845 10.125 16 10.125C17.5155 10.125 18.969 10.7176 20.0406 11.7725C21.1122 12.8274 21.7143 14.2582 21.7143 15.75C21.7143 16.4887 21.5665 17.2201 21.2793 17.9026C20.9921 18.5851 20.5712 19.2051 20.0406 19.7275C19.51 20.2498 18.8801 20.6641 18.1868 20.9468C17.4935 21.2295 16.7504 21.375 16 21.375ZM16 0C11.7565 0 7.68687 1.65937 4.68629 4.61307C1.68571 7.56677 0 11.5728 0 15.75C0 27.5625 16 45 16 45C16 45 32 27.5625 32 15.75C32 11.5728 30.3143 7.56677 27.3137 4.61307C24.3131 1.65937 20.2435 0 16 0Z" fill="#FF6F61"/>
<path d="M16.3333 8.33325C14.2115 8.33325 12.1767 9.18137 10.6764 10.691C9.17611 12.2007 8.33325 14.2483 8.33325 16.3833C8.33325 19.1203 9.69325 21.5238 11.7618 22.9843V25.5833C11.7618 25.8883 11.8822 26.1808 12.0966 26.3964C12.3109 26.6121 12.6016 26.7333 12.9047 26.7333H19.7618C20.0649 26.7333 20.3556 26.6121 20.5699 26.3964C20.7843 26.1808 20.9047 25.8883 20.9047 25.5833V22.9843C22.9733 21.5238 24.3333 19.1203 24.3333 16.3833C24.3333 14.2483 23.4904 12.2007 21.9901 10.691C20.4898 9.18137 18.455 8.33325 16.3333 8.33325ZM12.9047 30.1833C12.9047 30.4883 13.0251 30.7808 13.2394 30.9964C13.4537 31.2121 13.7444 31.3333 14.0475 31.3333H18.619C18.9221 31.3333 19.2128 31.2121 19.4271 30.9964C19.6414 30.7808 19.7618 30.4883 19.7618 30.1833V29.0333H12.9047V30.1833Z" fill="white"/>
</svg>
